<?xml version="1.0" encoding="utf-8"?>
<!-- Generator: Adobe Illustrator 19.1.0, SVG Export Plug-In . SVG Version: 6.00 Build 0)  -->
<svg version="1.1" id="Слой_1" xmlns="http://www.w3.org/2000/svg" xmlns:xlink="http://www.w3.org/1999/xlink" x="0px" y="0px"
	 width="158px" height="170.625px" viewBox="-341 212.655 158 170.625" style="enable-background:new -341 212.655 158 170.625;"
	 xml:space="preserve">
<style type="text/css">
	.st0{fill:#FFFFFF;}
	.st1{fill:#FFFFFF;stroke:#FFFFFF;stroke-width:2;stroke-miterlimit:10;}
	.st2{fill:#FFFFFF;stroke:#FFFFFF;stroke-miterlimit:10;}
	.st3{fill:#AEC6CF;}
	.st4{clip-path:url(#SVGID_5_);}
	.st5{clip-path:url(#SVGID_6_);fill:#ED1C24;}
	.st6{clip-path:url(#SVGID_8_);fill:#ED1C24;}
	.st7{fill:#ED1C24;}
	.st8{clip-path:url(#SVGID_10_);fill:#FFFFFF;}
	.st9{clip-path:url(#SVGID_12_);fill:#F7323E;}
	.st10{fill:#FFFFFF;stroke:#D8B69A;stroke-width:2;stroke-miterlimit:10;}
	.st11{fill:#FFFFFF;stroke:#ABADAE;stroke-miterlimit:10;}
	.st12{fill:#FC2B23;}
	.st13{fill:#FFFFFF;stroke:#34CE7C;stroke-width:2;stroke-miterlimit:10;}
	.st14{fill:#FFFFFF;stroke:#252525;stroke-width:2;stroke-miterlimit:10;}
	.st15{fill:#FFFFFF;stroke:#ED1C24;stroke-miterlimit:10;}
	.st16{clip-path:url(#SVGID_14_);}
	.st17{fill:#050505;}
	.st18{fill:none;}
	.st19{fill:#CCCCCC;}
</style>
<g>
	<path class="st0" d="M-288.095,222.79c-1.309-0.027-2.391,1.012-2.418,2.321c-0.027,1.309,1.012,2.391,2.321,2.418
		c0.032,0.001,0.065,0.001,0.097,0c1.309-0.027,2.348-1.11,2.321-2.418C-285.8,223.84-286.824,222.816-288.095,222.79"/>
	<path class="st0" d="M-282.554,220.967c-0.129-0.332-0.282-0.568-0.531-0.817c-0.249-0.249-0.486-0.403-0.817-0.532
		c-0.251-0.098-0.627-0.213-1.32-0.245c-0.75-0.034-0.975-0.042-2.872-0.042c-1.898,0-2.123,0.008-2.873,0.042
		c-0.693,0.031-1.069,0.147-1.32,0.245c-0.332,0.129-0.568,0.283-0.817,0.532c-0.249,0.249-0.403,0.485-0.531,0.817
		c-0.097,0.25-0.213,0.627-0.245,1.32c-0.035,0.75-0.042,0.974-0.042,2.872s0.007,2.123,0.042,2.873
		c0.031,0.692,0.147,1.069,0.245,1.319c0.128,0.333,0.283,0.569,0.531,0.817c0.25,0.249,0.486,0.403,0.817,0.532
		c0.25,0.097,0.627,0.213,1.32,0.245c0.749,0.034,0.974,0.042,2.873,0.042c1.897,0,2.123-0.008,2.872-0.042
		c0.693-0.031,1.069-0.147,1.32-0.245c0.332-0.129,0.569-0.283,0.817-0.532c0.249-0.249,0.402-0.485,0.531-0.817
		c0.097-0.25,0.213-0.627,0.246-1.319c0.034-0.75,0.041-0.974,0.041-2.873c0-1.898-0.007-2.123-0.041-2.872
		C-282.341,221.595-282.457,221.218-282.554,220.967 M-288.095,228.81c-2.016,0-3.65-1.634-3.65-3.65s1.634-3.65,3.65-3.65
		s3.65,1.634,3.65,3.65S-286.079,228.81-288.095,228.81 M-284.301,222.219c-0.471,0-0.853-0.382-0.853-0.853
		s0.382-0.853,0.853-0.853c0,0,0,0,0.001,0c0.471,0,0.853,0.382,0.853,0.853C-283.449,221.837-283.83,222.219-284.301,222.219"/>
	<path class="st0" d="M-288.095,212.658c-6.903,0-12.5,5.597-12.5,12.5s5.596,12.5,12.5,12.5c6.904,0,12.5-5.596,12.5-12.5
		C-275.595,218.254-281.191,212.658-288.095,212.658 M-281.03,228.09c-0.035,0.757-0.155,1.273-0.33,1.726
		c-0.179,0.474-0.459,0.904-0.82,1.259c-0.355,0.361-0.785,0.641-1.259,0.82c-0.452,0.176-0.969,0.295-1.726,0.331
		c-0.758,0.035-1,0.042-2.931,0.042s-2.172-0.008-2.931-0.042c-0.756-0.035-1.273-0.155-1.726-0.331
		c-0.474-0.179-0.904-0.459-1.259-0.82c-0.361-0.355-0.641-0.785-0.82-1.259c-0.176-0.452-0.296-0.969-0.33-1.726
		c-0.035-0.758-0.043-1-0.043-2.931c0-1.93,0.008-2.172,0.043-2.931c0.034-0.756,0.154-1.273,0.33-1.726
		c0.179-0.474,0.459-0.903,0.82-1.258c0.355-0.362,0.785-0.641,1.259-0.82c0.453-0.175,0.969-0.296,1.726-0.331
		c0.758-0.035,1-0.042,2.931-0.042s2.173,0.008,2.931,0.042c0.756,0.035,1.273,0.155,1.726,0.331
		c0.467,0.182,0.863,0.425,1.259,0.82c0.395,0.395,0.638,0.792,0.82,1.258c0.175,0.453,0.295,0.969,0.33,1.726
		c0.034,0.758,0.043,1,0.043,2.931S-280.996,227.332-281.03,228.09"/>
</g>
<path class="st1" d="M-255.067,228.06l-14.152-14.152c-0.333-0.333-0.868-0.333-1.201,0s-0.333,0.868,0,1.201l13.548,13.548
	l-13.548,13.549c-0.331,0.329-0.333,0.865-0.004,1.196c0.001,0.001,0.002,0.002,0.004,0.004c0.158,0.159,0.373,0.25,0.597,0.252
	c0.225,0.001,0.441-0.09,0.598-0.252l14.152-14.151C-254.741,228.927-254.739,228.392-255.067,228.06L-255.067,228.06
	 M-250.3,229.256l14.152,14.152c0.332,0.333,0.854,0.333,1.188,0c0.334-0.333,0.333-0.868,0-1.201l-13.539-13.548l13.55-13.549
	c0.331-0.329,0.333-0.865,0.004-1.196c-0.001-0.001-0.002-0.002-0.004-0.004c-0.319-0.329-0.844-0.338-1.174-0.019
	c-0.007,0.006-0.013,0.013-0.019,0.019l-14.152,14.151C-250.626,228.389-250.628,228.924-250.3,229.256L-250.3,229.256"/>
<path class="st2" d="M-333.511,259.004l-6.132-6.132c-0.145-0.145-0.376-0.145-0.521,0c-0.145,0.145-0.145,0.376,0,0.521
	l5.871,5.871l-5.871,5.871c-0.145,0.141-0.148,0.373-0.006,0.518c0.07,0.072,0.166,0.111,0.265,0.11c0.097,0,0.19-0.038,0.259-0.107
	l6.133-6.132C-333.37,259.38-333.369,259.149-333.511,259.004 M-329.446,259.523l6.132,6.132c0.145,0.146,0.376,0.146,0.521,0
	c0.145-0.146,0.145-0.376,0-0.521l-5.871-5.875l5.871-5.871c0.204,0.003,0.372-0.16,0.375-0.365c0.003-0.204-0.16-0.372-0.365-0.375
	c-0.101-0.001-0.199,0.039-0.269,0.111c-0.097,0-0.191,0.039-0.259,0.109l-6.133,6.132
	C-329.587,259.145-329.588,259.377-329.446,259.523 M-310.648,259.525l6.132-6.132c0.145-0.145,0.145-0.376,0-0.521
	c-0.145-0.145-0.376-0.145-0.521,0l-5.871,5.871l-5.871-5.871c0.003-0.204-0.16-0.372-0.365-0.375
	c-0.204-0.003-0.372,0.16-0.375,0.365c-0.001,0.101,0.039,0.199,0.111,0.269c0,0.092,0.036,0.188,0.109,0.259l6.132,6.133
	C-311.024,259.665-310.793,259.666-310.648,259.525"/>
<path class="st3" d="M-280.116,259.291c-0.412-0.494-0.881-0.938-1.333-1.366c-0.161-0.152-0.327-0.31-0.488-0.467
	c-0.46-0.45-0.477-0.619-0.112-1.131c0.252-0.353,0.52-0.705,0.778-1.047c0.235-0.31,0.478-0.63,0.71-0.951l0.048-0.066
	c0.444-0.615,0.904-1.251,1.148-2.018c0.063-0.203,0.131-0.5-0.022-0.75c-0.152-0.249-0.447-0.325-0.657-0.36
	c-0.1-0.015-0.2-0.022-0.301-0.02l-2.911-0.002h-0.024c-0.439,0-0.736,0.208-0.906,0.634c-0.162,0.408-0.341,0.842-0.544,1.255
	c-0.404,0.822-0.919,1.769-1.662,2.558l-0.032,0.034c-0.087,0.094-0.188,0.201-0.26,0.201c-0.013,0-0.025-0.002-0.037-0.006
	c-0.154-0.061-0.258-0.434-0.253-0.607v-0.007l-0.002-3.364l-0.002-0.035c-0.074-0.547-0.238-0.887-0.857-1.009
	c-0.017-0.003-0.034-0.005-0.051-0.005h-3.027c-0.493,0-0.765,0.201-1.02,0.5c-0.069,0.08-0.212,0.247-0.141,0.45
	c0.072,0.206,0.306,0.25,0.382,0.264c0.379,0.072,0.592,0.304,0.653,0.708c0.105,0.703,0.119,1.453,0.041,2.36
	c-0.012,0.211-0.058,0.418-0.135,0.614c-0.017,0.039-0.074,0.166-0.134,0.166c-0.019,0-0.073-0.008-0.173-0.076
	c-0.235-0.16-0.406-0.39-0.606-0.673c-0.682-0.963-1.253-2.024-1.749-3.244c-0.184-0.449-0.527-0.7-0.966-0.708
	c-0.446-0.007-0.893-0.011-1.339-0.011c-0.456,0-0.879,0.004-1.292,0.013c-0.354,0.006-0.599,0.112-0.727,0.315
	c-0.129,0.203-0.121,0.47,0.024,0.793c1.165,2.589,2.221,4.472,3.424,6.104c0.843,1.143,1.689,1.934,2.661,2.488
	c1.024,0.586,2.173,0.871,3.51,0.871c0.151,0,0.309-0.004,0.467-0.011c0.776-0.038,1.064-0.319,1.102-1.076
	c0.017-0.387,0.06-0.792,0.249-1.138c0.12-0.218,0.232-0.218,0.269-0.218c0.071,0,0.159,0.032,0.253,0.094
	c0.17,0.11,0.314,0.258,0.434,0.388c0.112,0.122,0.223,0.246,0.333,0.37c0.239,0.268,0.486,0.545,0.744,0.807
	c0.565,0.575,1.188,0.828,1.903,0.773h2.668c0.006,0,0.012,0,0.018-0.002c0.265-0.019,0.503-0.17,0.632-0.403
	c0.168-0.297,0.164-0.676-0.009-1.014C-279.629,259.918-279.856,259.591-280.116,259.291L-280.116,259.291z M-265.791,250.681
	l-1.945-0.003c-2.185,0-3.598,1.449-3.598,3.691v1.702h-1.956c-0.169,0-0.306,0.137-0.306,0.306v2.466
	c0,0.169,0.137,0.306,0.306,0.306h1.956v6.223c0,0.169,0.137,0.306,0.307,0.306h2.551c0.169,0,0.306-0.137,0.306-0.306v-6.223h2.287
	c0.169,0,0.306-0.137,0.306-0.306l0.002-2.466c-0.001-0.169-0.138-0.305-0.307-0.306h-2.288v-1.443c0-0.694,0.166-1.045,1.069-1.045
	l1.311-0.001c0.168,0,0.305-0.137,0.305-0.305v-0.001v-2.29C-265.486,250.817-265.622,250.681-265.791,250.681z"/>
<g>
	<path class="st3" d="M-251.088,252.049c2.002,0,2.239,0.007,3.03,0.043c0.729,0.033,1.127,0.156,1.393,0.258
		c0.35,0.136,0.6,0.298,0.861,0.561c0.264,0.262,0.426,0.512,0.563,0.862c0.104,0.264,0.225,0.662,0.258,1.393
		c0.037,0.791,0.045,1.028,0.045,3.031s-0.008,2.24-0.045,3.031c-0.033,0.729-0.154,1.128-0.258,1.393
		c-0.137,0.35-0.299,0.6-0.563,0.862c-0.242,0.249-0.536,0.44-0.861,0.561c-0.266,0.104-0.661,0.226-1.393,0.259
		c-0.791,0.037-1.028,0.045-3.03,0.045c-2.003,0-2.24-0.008-3.031-0.045c-0.731-0.033-1.128-0.148-1.394-0.259
		c-0.326-0.12-0.62-0.311-0.861-0.561c-0.249-0.242-0.441-0.536-0.561-0.862c-0.104-0.265-0.229-0.661-0.258-1.393
		c-0.037-0.792-0.043-1.028-0.043-3.031s0.006-2.24,0.043-3.031c0.021-0.731,0.146-1.128,0.258-1.393
		c0.12-0.326,0.311-0.621,0.561-0.862c0.262-0.263,0.512-0.425,0.861-0.561c0.265-0.103,0.662-0.225,1.394-0.258
		C-253.329,252.056-253.091,252.049-251.088,252.049 M-251.088,250.697c-2.038,0-2.293,0.009-3.093,0.045
		c-0.799,0.037-1.344,0.164-1.82,0.349c-0.493,0.192-0.912,0.448-1.329,0.865c-0.417,0.417-0.673,0.835-0.864,1.329
		c-0.186,0.477-0.313,1.022-0.35,1.82c-0.036,0.8-0.045,1.055-0.045,3.092c0,2.037,0.009,2.292,0.045,3.092
		c0.037,0.799,0.164,1.344,0.35,1.82c0.191,0.492,0.447,0.912,0.864,1.328c0.417,0.416,0.835,0.674,1.329,0.865
		c0.477,0.186,1.021,0.313,1.82,0.349c0.8,0.036,1.055,0.046,3.093,0.046c2.036,0,2.292-0.009,3.092-0.046
		c0.798-0.036,1.345-0.163,1.82-0.349c0.5-0.189,0.954-0.484,1.329-0.865c0.416-0.416,0.673-0.836,0.863-1.328
		c0.187-0.477,0.313-1.021,0.35-1.82c0.037-0.8,0.045-1.056,0.045-3.092c0-2.037-0.008-2.292-0.045-3.092
		c-0.036-0.798-0.163-1.343-0.35-1.82c-0.187-0.501-0.482-0.954-0.863-1.329c-0.375-0.381-0.829-0.676-1.329-0.865
		c-0.478-0.185-1.022-0.312-1.82-0.349C-248.796,250.706-249.052,250.697-251.088,250.697"/>
	<path class="st3" d="M-251.088,254.346c-2.127-0.077-3.913,1.585-3.99,3.711s1.585,3.913,3.711,3.99
		c0.092,0.003,0.185,0.003,0.278,0c2.127-0.076,3.789-1.862,3.712-3.989C-247.449,256.039-249.069,254.419-251.088,254.346
		 M-251.088,260.697c-1.381,0-2.5-1.119-2.5-2.5s1.119-2.5,2.5-2.5s2.5,1.119,2.5,2.5S-249.707,260.697-251.088,260.697
		 M-246.185,254.194c0,0.497-0.403,0.9-0.9,0.9c-0.497,0-0.9-0.403-0.9-0.9l0,0c0-0.497,0.403-0.9,0.9-0.9
		C-246.588,253.294-246.185,253.697-246.185,254.194"/>
</g>
<g>
	<g>
		<defs>
			<polygon id="SVGID_1_" points="-339.999,213.658 -338.999,213.658 -339.999,214.658 			"/>
		</defs>
		<clipPath id="SVGID_2_">
			<use xlink:href="#SVGID_1_"  style="overflow:visible;"/>
		</clipPath>
	</g>
	<g>
		<defs>
			<polygon id="SVGID_3_" points="-339.999,213.658 -338.999,213.658 -339.999,214.658 			"/>
		</defs>
		<defs>
			<polygon id="SVGID_4_" points="-341.999,211.658 -342.999,211.658 -341.999,210.658 			"/>
		</defs>
		<clipPath id="SVGID_5_">
			<use xlink:href="#SVGID_3_"  style="overflow:visible;"/>
		</clipPath>
		<clipPath id="SVGID_6_" class="st4">
			<use xlink:href="#SVGID_4_"  style="overflow:visible;"/>
		</clipPath>
		<path class="st5" d="M-279.886,277.127c-0.412-0.494-0.881-0.938-1.333-1.365c-0.161-0.146-0.327-0.311-0.488-0.468
			c-0.46-0.45-0.477-0.618-0.112-1.131c0.252-0.353,0.52-0.705,0.778-1.047c0.235-0.31,0.478-0.63,0.71-0.951l0.048-0.065
			c0.444-0.605,0.904-1.252,1.148-2.019c0.063-0.203,0.131-0.5-0.022-0.75c-0.152-0.249-0.447-0.325-0.657-0.36
			c-0.1-0.015-0.2-0.022-0.301-0.02l-2.911-0.002h-0.024c-0.439,0-0.736,0.208-0.906,0.634c-0.162,0.408-0.341,0.843-0.544,1.255
			c-0.404,0.822-0.919,1.771-1.662,2.563l-0.032,0.028c-0.087,0.1-0.188,0.201-0.26,0.201c-0.011,0-0.023-0.007-0.037-0.011
			c-0.154-0.063-0.258-0.435-0.253-0.604v-0.006l-0.002-3.358c0-0.019-0.001-0.023-0.002-0.035
			c-0.074-0.547-0.238-0.894-0.857-1.014c-0.017-0.004-0.034-0.006-0.051-0.006h-3.027c-0.493,0-0.765,0.203-1.02,0.5
			c-0.069,0.08-0.212,0.248-0.141,0.451c0.072,0.201,0.306,0.25,0.382,0.27c0.379,0.066,0.592,0.304,0.653,0.701
			c0.105,0.703,0.119,1.453,0.041,2.361c-0.012,0.209-0.058,0.415-0.135,0.609c-0.017,0.043-0.074,0.17-0.134,0.17
			c-0.019,0-0.073-0.008-0.173-0.076c-0.235-0.158-0.406-0.39-0.606-0.673c-0.682-0.963-1.253-2.022-1.749-3.244
			c-0.184-0.446-0.527-0.698-0.966-0.708c-0.446-0.007-0.893-0.011-1.339-0.011c-0.456,0-0.879,0.004-1.292,0.013
			c-0.354,0.008-0.599,0.112-0.727,0.315c-0.129,0.2-0.121,0.47,0.024,0.793c1.165,2.589,2.221,4.472,3.424,6.104
			c0.843,1.144,1.689,1.935,2.661,2.479c1.024,0.586,2.173,0.871,3.51,0.871c0.151,0,0.309-0.008,0.467-0.02
			c0.776-0.035,1.064-0.313,1.102-1.07c0.017-0.393,0.06-0.793,0.249-1.146c0.12-0.217,0.232-0.217,0.269-0.217
			c0.071,0,0.159,0.03,0.253,0.095c0.17,0.108,0.314,0.262,0.434,0.395c0.112,0.119,0.223,0.244,0.333,0.367
			c0.239,0.271,0.486,0.545,0.744,0.812c0.565,0.573,1.188,0.828,1.903,0.771h2.668c0.006,0,0.012,0,0.018-0.002
			c0.263-0.019,0.5-0.167,0.632-0.396c0.168-0.299,0.164-0.68-0.009-1.021C-279.401,277.747-279.629,277.425-279.886,277.127
			L-279.886,277.127z"/>
	</g>
</g>
<g>
	<g>
		<defs>
			<rect id="SVGID_7_" x="-273.365" y="268.533" width="8.192" height="15"/>
		</defs>
		<clipPath id="SVGID_8_">
			<use xlink:href="#SVGID_7_"  style="overflow:visible;"/>
		</clipPath>
		<path class="st6" d="M-265.561,268.517l-1.945-0.004c-2.185,0-3.598,1.45-3.598,3.688v1.702h-1.955
			c-0.17,0.001-0.307,0.138-0.306,0.308c0,0.001,0,0.001,0,0.002v2.467c0,0.168,0.137,0.312,0.306,0.312h1.956v6.226
			c0,0.17,0.137,0.309,0.307,0.309h2.551c0.17-0.001,0.307-0.139,0.306-0.309v-6.23h2.287c0.169-0.002,0.305-0.14,0.306-0.309
			l0.002-2.467c-0.002-0.083-0.034-0.163-0.091-0.224c-0.056-0.059-0.135-0.091-0.216-0.089h-2.288v-1.438
			c0-0.695,0.166-1.052,1.069-1.052l1.311-0.001c0.168,0,0.305-0.137,0.305-0.305c0-0.001,0-0.001,0-0.002v-2.289
			C-265.26,268.647-265.396,268.516-265.561,268.517z"/>
	</g>
</g>
<g>
	<path class="st7" d="M-250.858,269.885c2.002,0,2.239,0.008,3.03,0.043c0.731,0.033,1.128,0.156,1.394,0.258
		c0.354,0.146,0.604,0.309,0.861,0.563c0.264,0.265,0.426,0.515,0.563,0.862c0.104,0.264,0.229,0.662,0.271,1.393
		c0.036,0.791,0.044,1.028,0.044,3.031s-0.008,2.24-0.044,3.031c-0.026,0.729-0.146,1.128-0.271,1.393
		c-0.12,0.326-0.312,0.621-0.563,0.862c-0.242,0.248-0.536,0.44-0.861,0.563c-0.266,0.104-0.662,0.226-1.394,0.258
		c-0.791,0.037-1.028,0.045-3.03,0.045s-2.24-0.008-3.031-0.045c-0.729-0.032-1.127-0.154-1.393-0.258
		c-0.35-0.146-0.6-0.309-0.861-0.563c-0.249-0.242-0.441-0.537-0.562-0.862c-0.103-0.265-0.226-0.658-0.258-1.393
		c-0.036-0.791-0.043-1.028-0.043-3.031s0.007-2.24,0.043-3.031c0.032-0.729,0.155-1.128,0.258-1.393
		c0.119-0.327,0.311-0.621,0.562-0.862c0.271-0.263,0.521-0.425,0.861-0.563c0.264-0.103,0.662-0.225,1.393-0.258
		C-253.099,269.892-252.86,269.885-250.858,269.885 M-250.858,268.533c-2.037,0-2.293,0.009-3.093,0.045
		c-0.798,0.037-1.343,0.164-1.819,0.35c-0.501,0.188-0.955,0.483-1.33,0.864c-0.381,0.373-0.673,0.827-0.854,1.329
		c-0.188,0.477-0.313,1.021-0.354,1.82c-0.037,0.8-0.045,1.055-0.045,3.092c0,2.037,0.008,2.292,0.045,3.092
		c0.037,0.799,0.164,1.344,0.354,1.82c0.188,0.492,0.438,0.912,0.854,1.328c0.418,0.417,0.836,0.674,1.33,0.865
		c0.479,0.186,1.021,0.313,1.819,0.349c0.8,0.037,1.056,0.046,3.093,0.046s2.293-0.009,3.092-0.046
		c0.812-0.036,1.354-0.163,1.82-0.349c0.501-0.188,0.954-0.483,1.329-0.865c0.416-0.416,0.673-0.835,0.864-1.328
		c0.186-0.477,0.313-1.021,0.35-1.82c0.036-0.8,0.045-1.056,0.045-3.092c0-2.037-0.009-2.292-0.045-3.092
		c-0.037-0.799-0.164-1.344-0.35-1.82c-0.188-0.5-0.483-0.954-0.864-1.329c-0.375-0.381-0.828-0.676-1.329-0.864
		c-0.477-0.186-1.021-0.313-1.82-0.35C-248.565,268.542-248.821,268.533-250.858,268.533"/>
	<path class="st7" d="M-250.858,272.181c-2.127-0.001-3.853,1.722-3.854,3.85c-0.001,2.127,1.722,3.853,3.85,3.854
		c0.002,0,0.003,0,0.005,0c2.127,0,3.854-1.724,3.854-3.851C-247.004,273.907-248.731,272.181-250.858,272.181 M-250.858,278.533
		c-1.381,0-2.5-1.119-2.5-2.5s1.119-2.5,2.5-2.5s2.5,1.119,2.5,2.5C-248.358,277.414-249.477,278.533-250.858,278.533
		 M-245.955,272.03c0,0.497-0.402,0.899-0.899,0.899l0,0c-0.498,0-0.896-0.402-0.896-0.899s0.397-0.899,0.896-0.899
		C-246.358,271.131-245.955,271.533-245.955,272.03"/>
</g>
<path class="st7" d="M-280.117,278.096c-0.412-0.494-0.881-0.938-1.333-1.356c-0.166-0.156-0.328-0.315-0.487-0.478
	c-0.461-0.44-0.478-0.617-0.112-1.131c0.252-0.352,0.521-0.705,0.778-1.047c0.234-0.309,0.478-0.629,0.709-0.951l0.049-0.063
	c0.443-0.615,0.904-1.252,1.147-2.021c0.063-0.203,0.132-0.5-0.022-0.75c-0.151-0.248-0.446-0.324-0.656-0.354
	c-0.104-0.021-0.206-0.021-0.301-0.021l-2.911-0.004h-0.024c-0.439,0-0.736,0.207-0.906,0.635c-0.162,0.406-0.34,0.849-0.543,1.256
	c-0.404,0.822-0.92,1.771-1.662,2.563l-0.032,0.033c-0.087,0.094-0.188,0.196-0.261,0.196c-0.013,0-0.025-0.002-0.037-0.006
	c-0.153-0.063-0.258-0.438-0.252-0.604v-0.006l-0.002-3.365l-0.002-0.032c-0.074-0.55-0.238-0.89-0.857-1.011
	c-0.017-0.004-0.034-0.006-0.051-0.006h-3.027c-0.493,0-0.766,0.198-1.02,0.5c-0.069,0.08-0.213,0.248-0.142,0.448
	c0.072,0.203,0.306,0.25,0.382,0.267c0.379,0.07,0.592,0.306,0.653,0.707c0.104,0.703,0.119,1.453,0.041,2.354
	c-0.011,0.211-0.057,0.419-0.135,0.615c-0.017,0.038-0.074,0.166-0.134,0.166c-0.02,0-0.073-0.012-0.174-0.076
	c-0.234-0.158-0.406-0.395-0.605-0.674c-0.707-1.01-1.294-2.099-1.749-3.244c-0.185-0.442-0.526-0.696-0.966-0.707
	c-0.483-0.008-0.922-0.016-1.34-0.016c-0.455,0-0.879,0.008-1.291,0.018c-0.354,0.009-0.6,0.107-0.728,0.313
	c-0.129,0.203-0.121,0.477,0.024,0.793c1.164,2.596,2.221,4.479,3.424,6.104c0.843,1.146,1.689,1.938,2.66,2.481
	c1.025,0.591,2.174,0.871,3.511,0.871c0.151,0,0.31-0.004,0.467-0.01c0.776-0.039,1.063-0.32,1.103-1.076
	c0.017-0.388,0.06-0.793,0.248-1.14c0.121-0.224,0.232-0.224,0.27-0.224c0.071,0,0.159,0.03,0.253,0.101
	c0.17,0.104,0.313,0.259,0.435,0.388c0.111,0.123,0.223,0.246,0.332,0.371c0.24,0.271,0.486,0.545,0.744,0.812
	c0.565,0.569,1.188,0.823,1.903,0.771h2.668c0.007,0,0.013,0,0.019-0.002c0.265-0.018,0.503-0.171,0.631-0.404
	c0.168-0.297,0.164-0.676-0.008-1.014C-279.63,278.721-279.858,278.396-280.117,278.096L-280.117,278.096z"/>
<g>
	<g>
		<defs>
			<rect id="SVGID_9_" x="-340.999" y="270.687" width="20" height="17.741"/>
		</defs>
		<clipPath id="SVGID_10_">
			<use xlink:href="#SVGID_9_"  style="overflow:visible;"/>
		</clipPath>
		<path class="st8" d="M-321.186,286.415l-8.684-15.044c-0.362-0.626-1.164-0.84-1.79-0.478c-0.198,0.115-0.363,0.28-0.478,0.478
			l-8.684,15.044c-0.362,0.627-0.147,1.429,0.481,1.791c0.198,0.114,0.423,0.175,0.652,0.175h17.368
			c0.725-0.001,1.311-0.59,1.31-1.314C-321.012,286.838-321.072,286.613-321.186,286.415z M-330.992,276.004
			c0.549,0.002,0.992,0.449,0.99,0.998c0,0.008,0,0.016,0,0.023l-0.163,5.713c-0.023,0.459-0.413,0.813-0.872,0.79
			c-0.427-0.021-0.769-0.363-0.79-0.79l-0.16-5.713c-0.013-0.55,0.422-1.007,0.973-1.021
			C-331.007,276.004-330.999,276.004-330.992,276.004z M-331.004,286.338c-0.569-0.001-1.03-0.462-1.031-1.031
			c0-0.563,0.463-1.021,1.031-1.021c0.569,0,1.032,0.463,1.032,1.021C-329.974,285.876-330.435,286.337-331.004,286.338z"/>
	</g>
</g>
<g>
	<g>
		<defs>
			<rect id="SVGID_11_" x="-340.999" y="343.506" width="20" height="17.741"/>
		</defs>
		<clipPath id="SVGID_12_">
			<use xlink:href="#SVGID_11_"  style="overflow:visible;"/>
		</clipPath>
		<path class="st9" d="M-321.186,359.234l-8.684-15.044c-0.362-0.626-1.164-0.84-1.79-0.478c-0.198,0.115-0.363,0.28-0.478,0.478
			l-8.684,15.044c-0.362,0.627-0.147,1.429,0.481,1.791c0.198,0.114,0.423,0.175,0.652,0.175h17.368
			c0.725-0.001,1.311-0.59,1.31-1.314C-321.012,359.657-321.072,359.432-321.186,359.234z M-330.992,348.823
			c0.549,0.002,0.992,0.449,0.99,0.998c0,0.008,0,0.016,0,0.023l-0.163,5.713c-0.023,0.459-0.413,0.813-0.872,0.79
			c-0.427-0.021-0.769-0.363-0.79-0.79l-0.16-5.713c-0.013-0.55,0.422-1.007,0.973-1.021
			C-331.007,348.823-330.999,348.823-330.992,348.823z M-331.004,359.157c-0.569-0.001-1.03-0.462-1.031-1.031
			c0-0.563,0.463-1.021,1.031-1.021c0.569,0,1.032,0.463,1.032,1.021C-329.974,358.695-330.435,359.156-331.004,359.157z"/>
	</g>
</g>
<path class="st10" d="M-211.872,228.06l-14.152-14.152c-0.328-0.331-0.862-0.334-1.194-0.005c-0.002,0.002-0.004,0.004-0.005,0.005
	c-0.332,0.328-0.334,0.863-0.006,1.195c0.002,0.002,0.004,0.004,0.006,0.006l13.547,13.548l-13.547,13.549
	c-0.331,0.328-0.334,0.862-0.006,1.194c0.002,0.002,0.004,0.004,0.006,0.006c0.161,0.159,0.378,0.249,0.604,0.252
	c0.227,0.001,0.445-0.09,0.604-0.252l14.146-14.15C-211.544,228.923-211.545,228.391-211.872,228.06 M-207.104,229.256
	l14.152,14.152c0.332,0.333,0.865,0.333,1.198,0c0.333-0.333,0.333-0.868,0-1.201l-13.548-13.548l13.549-13.549
	c0.331-0.329,0.333-0.865,0.004-1.196c-0.001-0.001-0.002-0.002-0.004-0.004c-0.158-0.159-0.372-0.25-0.596-0.252
	c-0.227-0.001-0.445,0.09-0.604,0.252l-14.146,14.15c-0.332,0.327-0.336,0.861-0.009,1.192
	C-207.107,229.253-207.105,229.255-207.104,229.256"/>
<path class="st11" d="M-310.647,272.887l6.131-6.129c0.144-0.141,0.146-0.372,0.005-0.516c-0.002-0.002-0.003-0.003-0.005-0.005
	c-0.141-0.144-0.372-0.146-0.516-0.005c-0.002,0.002-0.003,0.003-0.005,0.005l-5.871,5.867l-5.87-5.867
	c-0.141-0.144-0.372-0.146-0.516-0.005c-0.002,0.002-0.003,0.003-0.005,0.005c-0.069,0.069-0.108,0.162-0.109,0.259
	c0,0.092,0.036,0.188,0.109,0.26l6.132,6.133C-311.021,273.028-310.792,273.027-310.647,272.887"/>
<path class="st12" d="M-322.684,212.658l18.012,17.99l-18.012,17.99l-18.012-17.99L-322.684,212.658z"/>
<path class="st0" d="M-320.095,223.349h-2.212c-2.173,0-4.016,1.654-4.016,4.866c0,1.927,0.893,3.347,2.483,4.048l-2.968,5.373
	c-0.097,0.174,0,0.311,0.155,0.311h1.377c0.116,0,0.194-0.039,0.233-0.137l2.697-5.274h0.971v5.274c0,0.059,0.059,0.137,0.135,0.137
	h1.204c0.117,0,0.155-0.059,0.155-0.155v-14.248C-319.881,223.407-319.959,223.349-320.095,223.349z M-321.375,231.29h-0.815
	c-1.281,0-2.522-0.935-2.522-3.27c0-2.434,1.164-3.426,2.348-3.426h0.99L-321.375,231.29z"/>
<path class="st12" d="M-184.836,260.357l-0.019,0.002c-0.627,0.074-1.131,0.204-1.562,0.604l-0.013,0.01l-0.02,0.026l-0.57,0.644
	l-0.015,0.019c-0.062,0.086-0.114,0.168-0.18,0.252c-0.147,0.196-0.28,0.403-0.396,0.619c-0.102,0.23-0.187,0.467-0.254,0.71
	c-0.027,0.104-0.064,0.205-0.099,0.309c-0.021,0.048-0.013,0.104,0.021,0.144c0.026,0.043,0.071,0.07,0.121,0.073
	c0.057,0.004,0.104,0.007,0.156,0.007c1.438,0,2.936-1.64,2.973-3.246c0-0.048-0.02-0.094-0.057-0.125
	C-184.757,260.372-184.796,260.357-184.836,260.357L-184.836,260.357z M-187.957,257.511c0.048,0,0.093-0.021,0.124-0.057
	c0.43-0.493,0.641-1.243,0.58-2.056c-0.072-0.952-0.496-1.845-1.137-2.389c-0.029-0.025-0.066-0.039-0.105-0.039l-0.021,0.001
	c-0.045,0.004-0.085,0.031-0.106,0.071c-0.938,1.387-0.753,2.871,0.549,4.41C-188.052,257.489-188.005,257.51-187.957,257.511z
	 M-187.747,260.856c0.025,0.089,0.117,0.141,0.206,0.116l0,0c1.36-0.405,2.146-2.279,1.714-4.092
	c-0.011-0.046-0.041-0.086-0.084-0.107c-0.042-0.023-0.092-0.026-0.136-0.008C-187.499,257.328-188.231,259.088-187.747,260.856z
	 M-184.931,263.519h-0.021c-1.454,0.188-1.99,0.854-2.27,1.339c-0.447,0.524-0.625,1.149-0.791,1.851
	c-0.012,0.047-0.002,0.096,0.027,0.135c0.023,0.039,0.064,0.064,0.109,0.066c0.061,0.005,0.104,0.008,0.156,0.008
	c1.422,0,2.898-1.631,2.939-3.229c0-0.049-0.021-0.096-0.058-0.129C-184.851,263.533-184.892,263.519-184.931,263.519
	L-184.931,263.519z M-193.202,274.913c-0.815,0.008-1.609,0.26-2.279,0.724c-0.039,0.028-0.065,0.071-0.07,0.119
	c-0.001,0.049,0.019,0.097,0.054,0.131c0.562,0.576,1.396,0.907,2.278,0.907c0.781,0,1.558-0.247,2.166-0.696
	c0.037-0.023,0.061-0.061,0.066-0.104c0.006-0.044-0.006-0.088-0.033-0.123C-191.485,275.26-192.28,274.913-193.202,274.913
	L-193.202,274.913z M-190.394,272.965c-0.867,0-1.758,0.338-2.508,0.95c-0.04,0.031-0.063,0.079-0.063,0.129
	s0.021,0.097,0.063,0.128c0.568,0.459,1.273,0.7,2.03,0.7c0.872,0,1.729-0.325,2.427-0.921c0.033-0.032,0.054-0.075,0.057-0.121
	c0-0.046-0.018-0.09-0.051-0.122C-188.944,273.226-189.64,272.965-190.394,272.965L-190.394,272.965z M-185.587,267.542
	c-0.269-0.039-0.541-0.061-0.813-0.067c-0.521,0-0.922,0.123-1.277,0.392l-0.331,0.217l-0.021,0.017
	c-0.664,0.353-1.139,0.896-1.434,1.667c-0.024,0.044-0.018,0.099,0.016,0.137c0.021,0.04,0.059,0.068,0.104,0.084
	c0.218,0.061,0.447,0.089,0.683,0.089c1.373,0,2.752-0.993,3.209-2.311c0.017-0.047,0.011-0.1-0.016-0.142
	C-185.491,267.58-185.536,267.549-185.587,267.542L-185.587,267.542z M-192.181,256.678c0.052,0.135,0.104,0.276,0.193,0.396
	c0.612,0.845,1.432,1.362,2.402,1.537c0.038,0.007,0.079,0.01,0.122,0.01c0.146,0,0.286-0.04,0.435-0.079
	c0.069-0.022,0.138-0.04,0.209-0.054c0.043-0.008,0.072-0.034,0.104-0.071c0.023-0.037,0.031-0.082,0.021-0.125
	c-0.02-0.063-0.021-0.128-0.031-0.199c-0.021-0.166-0.047-0.338-0.131-0.492c-0.476-0.86-1.518-1.462-2.533-1.462
	c-0.272,0-0.533,0.044-0.773,0.131c-0.043,0.016-0.079,0.048-0.098,0.09c-0.021,0.041-0.021,0.09,0.002,0.13
	C-192.228,256.553-192.204,256.616-192.181,256.678L-192.181,256.678z M-190.419,270.346c0.021,0.008,0.043,0.019,0.064,0.019
	c0.053,0.001,0.102-0.024,0.133-0.067c0.664-0.902,0.445-1.813,0.18-2.504c-0.146-0.383-0.426-0.707-0.693-1.021
	c-0.046-0.055-0.092-0.106-0.139-0.16c-0.166-0.199-0.322-0.24-0.426-0.24c-0.23,0-0.401,0.201-0.422,0.499
	c-0.037,0.528-0.063,1.151,0.061,1.752C-191.55,269.176-191.3,269.961-190.419,270.346z M-188.997,267.366
	c0.07,0.009,0.139,0.015,0.2,0.026c0.011,0.004,0.021,0.004,0.032,0.004c0.031,0,0.063-0.01,0.092-0.027
	c0.036-0.024,0.061-0.062,0.068-0.105c0.014-0.063,0.024-0.133,0.053-0.205c0.052-0.178,0.104-0.359,0.066-0.547
	c-0.187-0.9-0.602-1.535-1.271-1.93c-0.018-0.008-0.029-0.014-0.043-0.018l-0.467-0.266l-0.65-0.375
	c-0.025-0.015-0.053-0.022-0.082-0.021c-0.027,0-0.053,0.007-0.076,0.02c-0.048,0.026-0.081,0.074-0.087,0.129
	c-0.009,0.096-0.02,0.192-0.032,0.287c-0.021,0.152-0.039,0.271-0.02,0.396c0.217,1.104,0.793,1.944,1.711,2.503
	C-189.347,267.326-189.169,267.346-188.997,267.366L-188.997,267.366z M-192.485,272.652c0.201,0,0.357-0.163,0.471-0.305
	c0.354-0.44,0.504-1.146,0.398-1.875c-0.113-0.813-0.515-1.525-1.068-1.918c-0.021-0.021-0.063-0.028-0.096-0.028
	c-0.017,0-0.033,0.002-0.049,0.006c-0.049,0.016-0.088,0.054-0.105,0.103c-0.047,0.128-0.101,0.253-0.146,0.375
	c-0.108,0.271-0.224,0.521-0.271,0.791c-0.17,1.008-0.053,1.795,0.371,2.478C-192.87,272.45-192.714,272.652-192.485,272.652
	L-192.485,272.652z M-194.25,270.399c-0.027-0.019-0.059-0.028-0.092-0.027c-0.038,0-0.075,0.013-0.104,0.037
	c-0.639,0.533-0.777,1.301-0.859,1.979c-0.055,0.457-0.082,1.136,0.309,1.748c0.044,0.065,0.184,0.287,0.415,0.287
	c0.112,0,0.233-0.061,0.383-0.179c0.479-0.396,0.771-1.306,0.729-2.194C-193.524,271.295-193.797,270.709-194.25,270.399z
	 M-189.913,255.588c0.044-0.008,0.082-0.033,0.107-0.07c0.022-0.038,0.03-0.084,0.021-0.127c-0.372-1.618-1.688-2.792-3.138-2.792
	c-0.096,0-0.189,0.004-0.285,0.015c-0.088,0.01-0.152,0.088-0.146,0.176c0.104,1.249,1.563,2.833,3.065,2.833
	C-190.161,255.621-190.036,255.611-189.913,255.588z M-189.645,261.825c-0.367-0.374-0.872-0.58-1.396-0.569
	c-0.058,0-0.116,0.002-0.174,0.006c-0.07,0.005-0.129,0.055-0.147,0.123c-0.125,0.469,0.063,1.08,0.521,1.674
	c0.484,0.633,1.32,1.27,2.094,1.27l0.08-0.001c0.065-0.004,0.122-0.046,0.146-0.106
	C-188.241,263.449-188.765,262.336-189.645,261.825z M-188.202,260.885c-0.168-1.105-1.668-2.145-2.709-2.145h-0.001
	c-0.229,0-0.435,0.047-0.606,0.14c-0.063,0.033-0.098,0.105-0.084,0.175c0.213,1.146,1.689,2.404,2.822,2.404h0.01
	c0.172,0,0.363-0.021,0.48-0.158C-188.204,261.199-188.175,261.064-188.202,260.885L-188.202,260.885z M-188.491,270.588
	c-0.98,0-1.999,0.479-2.789,1.307c-0.064,0.067-0.061,0.172,0.005,0.236c0.008,0.008,0.017,0.015,0.027,0.021
	c0.496,0.305,1.068,0.465,1.651,0.461c1.021,0,2.049-0.476,2.74-1.265c0.027-0.036,0.041-0.08,0.039-0.125
	c-0.003-0.044-0.026-0.084-0.063-0.109C-187.345,270.765-187.911,270.58-188.491,270.588z M-235.503,260.357
	c-0.091,0.002-0.164,0.077-0.163,0.168c0.038,1.607,1.538,3.246,2.97,3.246c0.053,0,0.105-0.004,0.157-0.008
	c0.05-0.004,0.095-0.03,0.122-0.072c0.027-0.042,0.035-0.094,0.02-0.143l-0.096-0.31c-0.066-0.243-0.151-0.48-0.254-0.71
	c-0.112-0.218-0.244-0.425-0.393-0.619c-0.063-0.084-0.117-0.166-0.176-0.252c-0.004-0.005-0.016-0.012-0.021-0.02l-0.563-0.643
	l-0.022-0.026l-0.011-0.01c-0.422-0.4-0.926-0.531-1.553-0.604C-235.489,260.358-235.496,260.357-235.503,260.357L-235.503,260.357z
	 M-232.382,257.511c0.049,0,0.095-0.022,0.126-0.059c1.302-1.539,1.487-3.022,0.55-4.41c-0.026-0.039-0.068-0.065-0.115-0.071
	l-0.021-0.001c-0.039,0-0.077,0.014-0.107,0.039c-0.639,0.543-1.063,1.437-1.135,2.389c-0.062,0.813,0.149,1.563,0.58,2.056
	C-232.474,257.49-232.429,257.511-232.382,257.511z M-232.592,260.856c0.483-1.769-0.247-3.528-1.7-4.093
	c-0.044-0.018-0.094-0.015-0.135,0.008c-0.043,0.021-0.073,0.061-0.084,0.107c-0.432,1.813,0.354,3.688,1.713,4.092
	c0.015,0.004,0.031,0.006,0.047,0.006c0.028,0,0.056-0.007,0.08-0.021C-232.631,260.935-232.602,260.899-232.592,260.856z
	 M-235.407,263.519c-0.04-0.001-0.079,0.014-0.109,0.041c-0.037,0.032-0.057,0.078-0.055,0.127c0.035,1.6,1.521,3.229,2.941,3.229
	c0.053,0,0.105-0.003,0.156-0.008c0.048-0.002,0.092-0.026,0.119-0.066c0.021-0.037,0.039-0.086,0.021-0.135
	c-0.167-0.699-0.345-1.324-0.791-1.851c-0.271-0.485-0.813-1.149-2.271-1.341C-235.394,263.519-235.399,263.519-235.407,263.519z
	 M-227.138,274.913c-0.92,0-1.715,0.347-2.18,0.951c-0.056,0.071-0.043,0.173,0.027,0.229c0.001,0.001,0.002,0.001,0.003,0.002
	c0.631,0.453,1.388,0.695,2.165,0.692c0.896,0,1.729-0.325,2.288-0.903c0.034-0.037,0.05-0.086,0.045-0.136
	c-0.006-0.049-0.027-0.092-0.066-0.114C-225.528,275.172-226.323,274.921-227.138,274.913z M-229.944,272.965
	c-0.754,0-1.449,0.264-1.957,0.743c-0.066,0.06-0.071,0.163-0.011,0.229c0.005,0.005,0.009,0.01,0.015,0.014
	c0.67,0.588,1.53,0.915,2.422,0.921c0.756,0,1.461-0.241,2.037-0.7c0.039-0.031,0.062-0.078,0.063-0.128
	c0.002-0.051-0.021-0.099-0.062-0.129C-228.188,273.303-229.079,272.965-229.944,272.965z M-234.752,267.542
	c-0.05,0.007-0.093,0.034-0.118,0.076s-0.031,0.095-0.016,0.14c0.457,1.317,1.836,2.313,3.207,2.313c0.236,0,0.466-0.03,0.684-0.089
	c0.045-0.013,0.082-0.043,0.104-0.084c0.019-0.042,0.025-0.089,0.017-0.135c-0.304-0.771-0.771-1.313-1.435-1.667l-0.021-0.017
	l-0.33-0.217c-0.356-0.267-0.762-0.39-1.276-0.39C-234.204,267.474-234.476,267.508-234.752,267.542z M-228.157,256.678
	c0.023-0.062,0.047-0.125,0.074-0.187c0.02-0.041,0.02-0.089,0.001-0.13c-0.018-0.041-0.053-0.074-0.095-0.09
	c-0.249-0.088-0.511-0.133-0.775-0.131c-1.023,0-2.064,0.602-2.533,1.462c-0.084,0.154-0.104,0.326-0.131,0.492
	c-0.01,0.07-0.02,0.136-0.031,0.199c-0.01,0.043-0.002,0.088,0.023,0.125c0.024,0.037,0.062,0.063,0.105,0.071
	c0.063,0.013,0.136,0.033,0.209,0.054c0.138,0.039,0.271,0.079,0.426,0.079c0.041,0,0.081-0.003,0.121-0.01
	c0.979-0.175,1.789-0.692,2.41-1.537C-228.263,256.953-228.21,256.813-228.157,256.678L-228.157,256.678z M-229.919,270.346
	c0.88-0.385,1.13-1.17,1.24-1.729c0.121-0.602,0.1-1.223,0.063-1.752c-0.021-0.298-0.191-0.499-0.422-0.499
	c-0.104,0-0.26,0.041-0.428,0.24c-0.045,0.054-0.092,0.106-0.139,0.161c-0.271,0.313-0.545,0.638-0.691,1.021
	c-0.266,0.688-0.486,1.597,0.178,2.503c0.032,0.043,0.082,0.068,0.135,0.068C-229.963,270.358-229.94,270.351-229.919,270.346z
	 M-231.341,267.366c0.172-0.021,0.349-0.04,0.502-0.132c0.918-0.557,1.494-1.398,1.71-2.503c0.024-0.122,0.007-0.241-0.017-0.394
	c-0.02-0.082-0.024-0.176-0.035-0.287c-0.004-0.056-0.038-0.106-0.088-0.132c-0.023-0.013-0.049-0.019-0.076-0.019
	s-0.055,0.008-0.08,0.021l-0.655,0.375l-0.462,0.267c-0.015,0.004-0.029,0.01-0.043,0.018c-0.676,0.396-1.09,1.027-1.27,1.931
	c-0.037,0.187,0.016,0.369,0.063,0.545c0.021,0.072,0.041,0.144,0.057,0.207c0.008,0.043,0.03,0.08,0.066,0.104
	c0.027,0.018,0.059,0.027,0.092,0.026c0.014,0,0.021,0,0.031-0.002C-231.479,267.381-231.413,267.375-231.341,267.366
	L-231.341,267.366z M-227.853,272.652c0.228,0,0.383-0.202,0.494-0.38c0.422-0.679,0.541-1.464,0.361-2.474
	c-0.054-0.274-0.144-0.539-0.268-0.789c-0.057-0.123-0.106-0.249-0.148-0.377c-0.02-0.047-0.057-0.084-0.104-0.103
	c-0.021-0.004-0.029-0.006-0.049-0.006c-0.035,0.001-0.069,0.011-0.1,0.028c-0.557,0.393-0.953,1.106-1.066,1.917
	c-0.104,0.729,0.045,1.436,0.396,1.875C-228.21,272.489-228.056,272.652-227.853,272.652z M-226.089,270.399
	c-0.453,0.31-0.725,0.896-0.766,1.651c-0.045,0.895,0.252,1.799,0.725,2.194c0.14,0.118,0.262,0.179,0.382,0.179
	c0.237,0,0.371-0.222,0.415-0.287c0.383-0.612,0.355-1.291,0.301-1.748c-0.082-0.685-0.221-1.446-0.859-1.979
	c-0.021-0.024-0.063-0.037-0.104-0.037C-226.028,270.372-226.061,270.381-226.089,270.399z M-230.425,255.588
	c0.121,0.023,0.246,0.034,0.373,0.034c1.503,0,2.967-1.584,3.064-2.833c0.005-0.088-0.059-0.165-0.146-0.176
	c-0.095-0.01-0.19-0.015-0.286-0.015c-1.446,0-2.767,1.174-3.14,2.792c-0.01,0.043-0.002,0.089,0.021,0.127
	C-230.511,255.554-230.47,255.579-230.425,255.588z M-230.692,261.825c-0.881,0.511-1.404,1.624-1.121,2.394
	c0.021,0.063,0.08,0.106,0.146,0.106l0.08,0.001c0.771,0,1.605-0.637,2.095-1.268c0.456-0.596,0.646-1.205,0.521-1.674
	c-0.017-0.068-0.076-0.118-0.146-0.123c-0.058-0.004-0.116-0.006-0.174-0.006C-229.849,261.256-230.317,261.447-230.692,261.825z
	 M-232.136,260.885c-0.027,0.18,0,0.314,0.086,0.416c0.119,0.14,0.311,0.158,0.48,0.158h0.01c1.135,0,2.604-1.258,2.824-2.404
	c0.013-0.07-0.021-0.141-0.084-0.175c-0.188-0.094-0.396-0.142-0.607-0.14C-230.468,258.74-231.968,259.78-232.136,260.885z
	 M-231.849,270.588c-0.604,0-1.155,0.18-1.609,0.521c-0.037,0.027-0.06,0.068-0.064,0.113c-0.003,0.045,0.01,0.09,0.039,0.125
	c0.692,0.789,1.717,1.261,2.741,1.261c0.597,0,1.169-0.159,1.651-0.461c0.042-0.026,0.07-0.07,0.076-0.119
	c0.007-0.049-0.01-0.099-0.045-0.134C-229.849,271.063-230.866,270.588-231.849,270.588z M-341.001,297.158h36.319l1.686,0.215
	v0.564l-1.567,0.221h-36.438V297.158z"/>
<path class="st12" d="M-313.298,292.158c0,0,3.853,4.416,8.956,5c5.105,0.584-5.971,0-5.971,0L-313.298,292.158z M-313.298,303.158
	c0,0,3.853-4.416,8.956-5c5.105-0.584-5.971,0-5.971,0L-313.298,303.158z"/>
<path class="st0" d="M-265.445,288.517l-1.945-0.004c-2.185,0-3.598,1.449-3.598,3.688v1.702h-1.955
	c-0.17,0.001-0.307,0.138-0.306,0.308c0,0.001,0,0.001,0,0.002v2.467c0,0.168,0.137,0.313,0.306,0.313h1.956v6.228
	c0,0.17,0.137,0.31,0.307,0.31h2.551c0.169,0,0.306-0.14,0.306-0.31v-6.229h2.287c0.17-0.002,0.306-0.14,0.306-0.31l0.002-2.467
	c-0.002-0.084-0.035-0.164-0.091-0.226c-0.056-0.059-0.135-0.092-0.216-0.089h-2.288v-1.438c0-0.695,0.166-1.054,1.069-1.054
	l1.311-0.001c0.169-0.001,0.306-0.138,0.305-0.307c0-0.001,0-0.001,0-0.002v-2.287C-265.144,288.646-265.28,288.516-265.445,288.517
	L-265.445,288.517z"/>
<g>
	<path class="st0" d="M-250.743,289.885c2.002,0,2.24,0.008,3.031,0.043c0.73,0.033,1.127,0.156,1.393,0.258
		c0.355,0.146,0.605,0.312,0.861,0.563c0.264,0.265,0.426,0.515,0.563,0.862c0.105,0.264,0.23,0.662,0.271,1.393
		c0.027,0.791,0.043,1.028,0.043,3.031s-0.016,2.24-0.043,3.031c-0.033,0.729-0.152,1.128-0.271,1.393
		c-0.12,0.326-0.312,0.621-0.563,0.862c-0.242,0.249-0.536,0.441-0.861,0.563c-0.266,0.104-0.662,0.226-1.393,0.258
		c-0.791,0.037-1.029,0.045-3.031,0.045s-2.24-0.008-3.031-0.045c-0.729-0.032-1.127-0.154-1.393-0.258
		c-0.35-0.146-0.6-0.312-0.861-0.563c-0.249-0.242-0.44-0.537-0.561-0.862c-0.104-0.265-0.227-0.658-0.258-1.393
		c-0.037-0.791-0.043-1.028-0.043-3.031s0.006-2.24,0.043-3.031c0.031-0.729,0.154-1.128,0.258-1.393
		c0.135-0.352,0.297-0.602,0.561-0.862c0.268-0.263,0.518-0.425,0.861-0.563c0.264-0.103,0.662-0.225,1.393-0.258
		C-252.983,289.892-252.745,289.885-250.743,289.885 M-250.743,288.533c-2.037,0-2.293,0.009-3.092,0.045
		c-0.799,0.037-1.344,0.164-1.82,0.35c-0.501,0.188-0.955,0.483-1.33,0.864c-0.381,0.374-0.675,0.828-0.859,1.329
		c-0.188,0.477-0.313,1.021-0.354,1.82c-0.037,0.8-0.045,1.055-0.045,3.092c0,2.037,0.008,2.292,0.045,3.092
		c0.037,0.799,0.164,1.344,0.354,1.82c0.188,0.492,0.443,0.912,0.859,1.328c0.418,0.417,0.836,0.674,1.33,0.865
		c0.48,0.186,1.021,0.313,1.82,0.349c0.799,0.037,1.055,0.046,3.092,0.046c2.037,0,2.293-0.009,3.092-0.046
		c0.805-0.036,1.35-0.163,1.82-0.349c0.501-0.188,0.955-0.483,1.33-0.865c0.416-0.416,0.672-0.835,0.863-1.328
		c0.186-0.477,0.313-1.021,0.35-1.82c0.037-0.8,0.045-1.056,0.045-3.092c0-2.037-0.008-2.292-0.045-3.092
		c-0.037-0.799-0.164-1.344-0.35-1.82c-0.188-0.5-0.482-0.954-0.863-1.329c-0.375-0.381-0.829-0.676-1.33-0.864
		c-0.477-0.186-1.02-0.313-1.82-0.35C-248.45,288.542-248.706,288.533-250.743,288.533"/>
	<path class="st0" d="M-250.743,292.181c-2.127,0-3.852,1.725-3.852,3.852c0,2.127,1.725,3.852,3.852,3.852
		c2.127,0,3.855-1.724,3.855-3.851C-246.888,293.907-248.616,292.181-250.743,292.181 M-250.743,298.533c-1.381,0-2.5-1.119-2.5-2.5
		s1.119-2.5,2.5-2.5s2.5,1.119,2.5,2.5S-249.362,298.533-250.743,298.533 M-245.839,292.03c-0.001,0.497-0.403,0.899-0.9,0.899
		c-0.498,0-0.895-0.402-0.895-0.899c0-0.497,0.396-0.899,0.895-0.899C-246.242,291.131-245.84,291.533-245.839,292.03"/>
</g>
<path class="st0" d="M-280.001,298.096c-0.412-0.494-0.881-0.938-1.333-1.354c-0.167-0.155-0.329-0.315-0.487-0.479
	c-0.461-0.438-0.478-0.617-0.112-1.131c0.252-0.353,0.521-0.705,0.778-1.048c0.234-0.309,0.478-0.629,0.709-0.95l0.049-0.063
	c0.443-0.615,0.904-1.252,1.147-2.021c0.063-0.203,0.132-0.5-0.022-0.75c-0.151-0.248-0.446-0.324-0.656-0.354
	c-0.104-0.021-0.206-0.021-0.301-0.021l-2.911-0.004h-0.024c-0.439,0-0.736,0.207-0.906,0.635c-0.162,0.406-0.34,0.851-0.543,1.256
	c-0.404,0.822-0.92,1.771-1.662,2.563l-0.032,0.033c-0.087,0.094-0.188,0.196-0.261,0.196c-0.013-0.001-0.025-0.003-0.037-0.007
	c-0.153-0.063-0.258-0.438-0.252-0.604v-0.006l-0.002-3.365l-0.002-0.031c-0.074-0.551-0.238-0.891-0.857-1.012
	c-0.017-0.004-0.034-0.006-0.051-0.006h-3.027c-0.493,0-0.766,0.198-1.02,0.5c-0.069,0.08-0.213,0.248-0.142,0.448
	c0.072,0.202,0.306,0.25,0.382,0.267c0.379,0.07,0.592,0.307,0.653,0.707c0.104,0.703,0.119,1.453,0.041,2.354
	c-0.011,0.211-0.057,0.419-0.135,0.615c-0.017,0.039-0.074,0.166-0.134,0.166c-0.02,0-0.073-0.014-0.174-0.076
	c-0.234-0.157-0.406-0.396-0.605-0.674c-0.706-1.01-1.293-2.099-1.749-3.244c-0.185-0.441-0.526-0.695-0.966-0.707
	c-0.483-0.008-0.922-0.018-1.34-0.018c-0.455,0-0.879,0.01-1.291,0.02c-0.354,0.01-0.6,0.105-0.728,0.313
	c-0.129,0.203-0.121,0.478,0.024,0.793c1.164,2.597,2.221,4.479,3.424,6.104c0.843,1.146,1.689,1.938,2.66,2.48
	c1.025,0.592,2.174,0.871,3.511,0.871c0.151,0,0.31-0.004,0.467-0.01c0.776-0.039,1.063-0.32,1.103-1.076
	c0.017-0.388,0.06-0.793,0.248-1.141c0.121-0.223,0.232-0.223,0.27-0.223c0.071,0,0.159,0.027,0.253,0.101
	c0.17,0.104,0.313,0.259,0.435,0.388c0.111,0.123,0.223,0.246,0.332,0.371c0.24,0.271,0.486,0.545,0.744,0.813
	c0.565,0.568,1.188,0.822,1.903,0.771h2.668c0.007,0,0.013,0,0.019-0.002c0.265-0.018,0.503-0.171,0.631-0.404
	c0.168-0.297,0.164-0.676-0.008-1.014C-279.514,298.721-279.742,298.396-280.001,298.096L-280.001,298.096z"/>
<path class="st13" d="M-211.872,304.06l-14.152-14.152c-0.328-0.331-0.862-0.334-1.194-0.005c-0.002,0.002-0.004,0.004-0.005,0.005
	c-0.332,0.328-0.334,0.863-0.006,1.195c0.002,0.002,0.004,0.004,0.006,0.006l13.547,13.548l-13.547,13.549
	c-0.331,0.328-0.334,0.862-0.006,1.194c0.002,0.002,0.004,0.004,0.006,0.006c0.161,0.159,0.378,0.249,0.604,0.252
	c0.227,0.001,0.445-0.09,0.604-0.252l14.146-14.15C-211.544,304.923-211.545,304.391-211.872,304.06 M-207.104,305.256
	l14.152,14.152c0.332,0.333,0.865,0.333,1.198,0c0.333-0.333,0.333-0.868,0-1.201l-13.548-13.548l13.549-13.549
	c0.331-0.329,0.333-0.865,0.004-1.196c-0.001-0.001-0.002-0.002-0.004-0.004c-0.158-0.159-0.372-0.25-0.596-0.252
	c-0.227-0.001-0.445,0.09-0.604,0.252l-14.146,14.15c-0.332,0.327-0.336,0.861-0.009,1.192
	C-207.107,305.253-207.105,305.255-207.104,305.256"/>
<path class="st14" d="M-211.872,337.801l-14.152-14.152c-0.328-0.331-0.862-0.334-1.194-0.005c-0.002,0.002-0.004,0.004-0.005,0.005
	c-0.332,0.328-0.334,0.863-0.006,1.195c0.002,0.002,0.004,0.004,0.006,0.006l13.547,13.548l-13.547,13.549
	c-0.331,0.328-0.334,0.862-0.006,1.194c0.002,0.002,0.004,0.004,0.006,0.006c0.161,0.159,0.378,0.249,0.604,0.252
	c0.227,0.001,0.445-0.09,0.604-0.252l14.146-14.15C-211.544,338.664-211.545,338.133-211.872,337.801 M-207.104,338.997
	l14.152,14.152c0.332,0.333,0.865,0.333,1.198,0c0.333-0.333,0.333-0.868,0-1.201l-13.548-13.548l13.549-13.549
	c0.331-0.329,0.333-0.865,0.004-1.196c-0.001-0.001-0.002-0.002-0.004-0.004c-0.158-0.159-0.372-0.25-0.596-0.252
	c-0.227-0.001-0.445,0.09-0.604,0.252l-14.146,14.15c-0.332,0.327-0.336,0.861-0.009,1.192
	C-207.107,338.995-207.105,338.996-207.104,338.997"/>
<path class="st2" d="M-333.512,316.522l6.131-6.134c0.144-0.141,0.146-0.372,0.005-0.516c-0.002-0.002-0.003-0.003-0.005-0.005
	c-0.141-0.144-0.372-0.146-0.516-0.005c-0.002,0.002-0.003,0.003-0.005,0.005l-5.871,5.87l-5.87-5.87
	c-0.141-0.144-0.372-0.146-0.516-0.005c-0.002,0.002-0.003,0.003-0.005,0.005c-0.071,0.07-0.109,0.166-0.109,0.259
	c0,0.093,0.036,0.188,0.109,0.261l6.132,6.133C-333.888,316.663-333.657,316.664-333.512,316.522"/>
<path class="st15" d="M-315.512,316.522l6.131-6.134c0.144-0.141,0.146-0.372,0.005-0.516c-0.002-0.002-0.003-0.003-0.005-0.005
	c-0.141-0.144-0.372-0.146-0.516-0.005c-0.002,0.002-0.003,0.003-0.005,0.005l-5.871,5.87l-5.87-5.87
	c-0.141-0.144-0.372-0.146-0.516-0.005c-0.002,0.002-0.003,0.003-0.005,0.005c-0.071,0.07-0.109,0.166-0.109,0.259
	c0,0.093,0.036,0.188,0.109,0.261l6.132,6.133C-315.888,316.663-315.657,316.664-315.512,316.522"/>
<path class="st2" d="M-294.182,309.864l-6.131,6.133c-0.144,0.141-0.146,0.372-0.005,0.516c0.002,0.002,0.003,0.003,0.005,0.005
	c0.141,0.144,0.372,0.146,0.516,0.005c0.002-0.002,0.003-0.003,0.005-0.005l5.871-5.866l5.87,5.866
	c0.141,0.144,0.372,0.146,0.516,0.005c0.002-0.002,0.003-0.003,0.005-0.005c0.07-0.068,0.109-0.161,0.109-0.258
	c0-0.098-0.04-0.192-0.109-0.261l-6.132-6.133C-293.805,309.723-294.038,309.722-294.182,309.864"/>
<g>
	<g>
		<defs>
			<rect id="SVGID_13_" x="-279.113" y="308.193" width="15.84" height="12"/>
		</defs>
		<clipPath id="SVGID_14_">
			<use xlink:href="#SVGID_13_"  style="overflow:visible;"/>
		</clipPath>
		<path class="st16" d="M-263.258,313.338c-0.066-0.098-1.648-2.354-3.832-3.902c-1.133-0.801-2.563-1.237-4.023-1.237
			c-1.46,0-2.891,0.438-4.023,1.237c-2.188,1.552-3.766,3.81-3.832,3.902c-0.191,0.275-0.191,0.639,0,0.914
			c0.066,0.094,1.645,2.352,3.832,3.898c1.133,0.801,2.563,1.242,4.023,1.242s2.891-0.441,4.023-1.242
			c2.184-1.547,3.766-3.805,3.832-3.902C-263.066,313.975-263.066,313.611-263.258,313.338z M-271.113,316.592
			c-1.546,0.001-2.8-1.253-2.801-2.799c-0.001-1.546,1.253-2.8,2.799-2.801c1.546-0.001,2.8,1.253,2.801,2.799
			C-268.313,315.337-269.567,316.591-271.113,316.592L-271.113,316.592z"/>
	</g>
</g>
<path d="M-269.516,313.795c-0.001,0.884-0.717,1.6-1.601,1.599s-1.6-0.717-1.599-1.601c0-0.001,0-0.001,0-0.002
	c0.002-0.884,0.719-1.599,1.603-1.597C-270.23,312.196-269.515,312.912-269.516,313.795z"/>
<path class="st15" d="M-249.498,309.864l-6.131,6.133c-0.144,0.141-0.146,0.372-0.005,0.516c0.002,0.002,0.003,0.003,0.005,0.005
	c0.141,0.144,0.372,0.146,0.516,0.005c0.002-0.002,0.003-0.003,0.005-0.005l5.871-5.866l5.869,5.866
	c0.141,0.144,0.372,0.146,0.516,0.005c0.002-0.002,0.003-0.003,0.005-0.005c0.143-0.141,0.145-0.371,0.004-0.515
	c-0.001-0.001-0.003-0.003-0.004-0.004l-6.133-6.133C-249.122,309.722-249.354,309.721-249.498,309.864L-249.498,309.864"/>
<path class="st14" d="M-320.376,329.64l-6.134-6.133c-0.141-0.144-0.372-0.146-0.516-0.005c-0.002,0.002-0.003,0.003-0.005,0.005
	c-0.144,0.141-0.146,0.372-0.005,0.516c0.002,0.002,0.003,0.003,0.005,0.005l5.87,5.87l-5.87,5.87
	c-0.144,0.141-0.146,0.372-0.005,0.516c0.002,0.002,0.003,0.003,0.005,0.005c0.07,0.071,0.166,0.106,0.259,0.106
	c0.098,0.001,0.192-0.037,0.261-0.106l6.133-6.132C-320.237,330.014-320.236,329.784-320.376,329.64 M-339.779,330.158l6.133,6.132
	c0.146,0.146,0.375,0.146,0.521,0s0.146-0.375,0-0.521l-5.869-5.871l5.869-5.871c0.144-0.141,0.146-0.372,0.005-0.516
	c-0.002-0.002-0.003-0.003-0.005-0.005c-0.144-0.142-0.376-0.142-0.52,0l-6.133,6.133
	C-339.92,329.783-339.92,330.014-339.779,330.158"/>
<path class="st2" d="M-280.427,336.353c-3.006-7.092-9.965-11.696-17.668-11.688c-7.703-0.008-14.662,4.596-17.668,11.688
	c-0.096,0.222-0.096,0.473,0,0.695c3.007,7.091,9.966,11.695,17.668,11.687c7.714,0,14.65-4.587,17.668-11.687
	C-280.331,336.826-280.331,336.575-280.427,336.353 M-298.095,346.959c-6.852,0.007-13.07-4.009-15.882-10.258
	c2.816-6.243,9.008-10.256,15.882-10.256c6.874,0,13.066,4.013,15.883,10.256C-285.025,342.95-291.243,346.965-298.095,346.959"/>
<path class="st2" d="M-280.427,336.353c-3.006-7.092-9.965-11.696-17.668-11.688c-7.703-0.008-14.662,4.596-17.668,11.688
	c-0.096,0.222-0.096,0.473,0,0.695c3.007,7.091,9.966,11.695,17.668,11.687c7.714,0,14.65-4.587,17.668-11.687
	C-280.331,336.826-280.331,336.575-280.427,336.353L-280.427,336.353z M-298.095,346.959c-6.852,0.007-13.07-4.009-15.882-10.258
	c2.816-6.243,9.008-10.256,15.882-10.256c6.874,0,13.066,4.013,15.883,10.256C-285.025,342.949-291.243,346.965-298.095,346.959z"/>
<path class="st2" d="M-298.095,329.898c-3.756,0.004-6.8,3.048-6.804,6.804c0.004,3.756,3.048,6.8,6.804,6.804
	c3.756-0.005,6.799-3.048,6.804-6.804C-291.295,332.946-294.339,329.902-298.095,329.898 M-298.095,341.728
	c-2.774-0.003-5.023-2.252-5.026-5.026c0.002-2.775,2.251-5.024,5.026-5.026c2.775,0.003,5.024,2.251,5.027,5.026
	C-293.072,339.476-295.321,341.724-298.095,341.728"/>
<path class="st2" d="M-298.095,329.898c-3.756,0.004-6.8,3.048-6.804,6.804c0.004,3.756,3.048,6.8,6.804,6.804
	c3.756-0.005,6.799-3.048,6.804-6.804C-291.295,332.946-294.339,329.902-298.095,329.898z M-298.095,341.728
	c-2.774-0.003-5.023-2.252-5.026-5.026c0.002-2.775,2.251-5.024,5.026-5.026c2.775,0.003,5.024,2.251,5.027,5.026
	C-293.072,339.476-295.321,341.724-298.095,341.728z"/>
<path class="st2" d="M-298.095,333.09c-1.994,0.002-3.61,1.618-3.612,3.612c0,0.49,0.398,0.888,0.888,0.888
	c0.49,0,0.888-0.398,0.888-0.888c0-1.012,0.823-1.836,1.835-1.836c0.49,0,0.888-0.397,0.889-0.887
	C-297.207,333.488-297.605,333.09-298.095,333.09"/>
<path class="st2" d="M-298.095,333.09c-1.994,0.002-3.61,1.618-3.612,3.612c0,0.49,0.398,0.888,0.888,0.888
	c0.49,0,0.888-0.398,0.888-0.888c0-1.012,0.823-1.836,1.835-1.836c0.49,0,0.888-0.397,0.889-0.887
	C-297.207,333.488-297.605,333.09-298.095,333.09z M-280.426,365.526c-3.02-7.099-9.955-11.687-17.669-11.687
	c-7.714,0-14.65,4.588-17.669,11.687c-0.095,0.222-0.095,0.472,0,0.694c3.019,7.1,9.955,11.688,17.669,11.688
	c7.714,0,14.65-4.588,17.669-11.688C-280.332,365.998-280.332,365.748-280.426,365.526 M-298.095,376.132
	c-6.852,0.007-13.07-4.009-15.882-10.258c2.816-6.244,9.008-10.257,15.882-10.257c6.874,0,13.066,4.013,15.882,10.257
	C-285.025,372.123-291.243,376.139-298.095,376.132"/>
<path class="st2" d="M-280.426,365.526c-3.02-7.099-9.955-11.687-17.669-11.687c-7.714,0-14.65,4.588-17.669,11.687
	c-0.095,0.222-0.095,0.472,0,0.694c3.019,7.1,9.955,11.688,17.669,11.688c7.714,0,14.65-4.588,17.669-11.688
	C-280.332,365.998-280.332,365.748-280.426,365.526z M-298.095,376.132c-6.852,0.007-13.07-4.009-15.882-10.258
	c2.816-6.244,9.008-10.257,15.882-10.257c6.874,0,13.066,4.013,15.882,10.257C-285.025,372.123-291.243,376.139-298.095,376.132z"/>
<path class="st2" d="M-298.095,359.071c-3.751,0-6.803,3.052-6.803,6.803s3.052,6.804,6.803,6.804s6.803-3.053,6.803-6.804
	S-294.344,359.071-298.095,359.071 M-298.095,364.558c-0.726,0-1.316,0.59-1.316,1.315c0,0.776-0.631,1.408-1.408,1.408
	s-1.408-0.632-1.408-1.408c0.003-2.281,1.851-4.129,4.132-4.132c0.776,0,1.408,0.632,1.408,1.408S-297.319,364.558-298.095,364.558"
	/>
<path class="st2" d="M-298.095,359.071c-3.751,0-6.803,3.052-6.803,6.803s3.052,6.804,6.803,6.804s6.803-3.053,6.803-6.804
	S-294.344,359.071-298.095,359.071z M-298.095,364.558c-0.726,0-1.316,0.59-1.316,1.315c0,0.776-0.631,1.408-1.408,1.408
	s-1.408-0.632-1.408-1.408c0.003-2.281,1.851-4.129,4.132-4.132c0.776,0,1.408,0.632,1.408,1.408S-297.319,364.558-298.095,364.558z
	"/>
<g>
	<path class="st17" d="M-257.047,325.164c-2.355-2.355-6.122-2.237-8.36,0l-8.83,8.83c-1.648,1.648-1.648,4.239,0,5.887
		c0.824,0.824,1.884,1.177,2.943,1.177c1.06,0,2.119-0.471,2.826-1.295l8.006-8.006c0.942-0.942,0.942-2.355,0-3.297
		c-0.942-0.942-2.355-0.942-3.297,0l-5.534,5.534c-0.236,0.236-0.236,0.589,0,0.824c0.236,0.236,0.589,0.236,0.824,0l5.534-5.534
		c0.471-0.471,1.177-0.471,1.649,0c0.471,0.471,0.471,1.177,0,1.648l-8.006,8.006c-1.06,1.177-2.944,1.177-4.121,0
		c-1.177-1.06-1.177-2.943,0-4.121l8.831-8.831c1.884-1.884,4.827-1.884,6.711,0c1.884,1.884,1.884,4.828,0,6.711l-6.358,6.358
		c-0.236,0.236-0.236,0.589,0,0.824c0.236,0.236,0.589,0.236,0.824,0l6.358-6.358C-254.81,331.169-254.81,327.401-257.047,325.164
		L-257.047,325.164z M-257.047,325.164"/>
	<rect x="-275.474" y="323.399" class="st18" width="20.116" height="17.741"/>
</g>
<g>
	<path class="st19" d="M-235.371,325.164c-2.355-2.355-6.122-2.237-8.36,0l-8.83,8.83c-1.648,1.648-1.648,4.239,0,5.887
		c0.824,0.824,1.884,1.177,2.943,1.177c1.06,0,2.119-0.471,2.826-1.295l8.006-8.006c0.942-0.942,0.942-2.355,0-3.297
		c-0.942-0.942-2.355-0.942-3.296,0l-5.534,5.534c-0.236,0.236-0.236,0.589,0,0.824c0.236,0.236,0.589,0.236,0.824,0l5.534-5.534
		c0.471-0.471,1.177-0.471,1.649,0c0.471,0.471,0.471,1.177,0,1.648l-8.006,8.006c-1.06,1.177-2.944,1.177-4.121,0
		c-1.177-1.06-1.177-2.943,0-4.121l8.83-8.831c1.884-1.884,4.827-1.884,6.711,0c1.884,1.884,1.884,4.828,0,6.711l-6.358,6.358
		c-0.236,0.236-0.236,0.589,0,0.824c0.236,0.236,0.589,0.236,0.824,0l6.358-6.358C-233.134,331.169-233.134,327.401-235.371,325.164
		L-235.371,325.164z M-235.371,325.164"/>
	<rect x="-253.797" y="323.399" class="st18" width="20.116" height="17.741"/>
</g>
</svg>
